<svg xmlns="http://www.w3.org/2000/svg" width="993.333" height="989.333" viewBox="0 0 745 742" preserveAspectRatio="xMidYMid meet" xmlns:v="https://vecta.io/nano"><path d="M359 197.9c-32.7 14.9-53.1 28.1-69.1 44.8-19 19.7-28 42.8-25.9 66.4.9 10.9 1.3 12.7 4.7 23.3 6.6 20.3 19.9 39.3 46.3 65.6 23.1 23.1 33.2 35.9 41.1 52.5 12.4 26 11.5 46.3-3.7 81.9-3 7-5.3 13-5.1 13.2.9 1 28.1-22 39.5-33.4 28.8-28.6 42.2-54.5 42.2-81.3 0-20.1-6.5-37.8-21.8-59.4-4.5-6.3-8.8-11.4-29.9-35.5-30.6-34.9-38.8-71.3-24.4-108 3.9-9.8 12.1-25.4 16.3-30.9 1.9-2.5 2.3-4.1 1.1-4.1-.5.1-5.5 2.2-11.3 4.9zm19.8 3.8c-6.5 7.5-16.8 28.6-19.7 40.1-8.2 32.7 1.2 60 32.8 95.2 29.9 33.2 42.1 54 46.7 79.5 2.7 15.2 1.4 28-4.6 45-3.9 11-6.8 16.8-13.1 26.4-2.7 4.1-4.7 7.6-4.4 7.9.7.7 13.1-7.8 24.5-16.9 41.3-32.9 56.6-70.5 44.9-109.9-2.9-9.8-11.1-25.4-18.4-35.2-8.7-11.6-18.7-21.5-39-39-25.3-21.6-33.3-30.4-40.4-44.5-5.7-11.3-7.5-20.1-7.6-36l-.1-14.3s-.8.8-1.6 1.7zm-113.6 162c-3.5 9.7-6.1 22.3-7.1 34.6-1.7 20 1.1 36.1 8.6 50.8 5.5 10.9 12.3 18.3 27.6 30.5 28 22.2 38 35.7 42.1 56.8l1.3 7.1 4.3-9c15.4-32.7 16.8-55.3 5-79-7.1-14.3-15.4-24.7-39.6-49.7-16.9-17.5-23.1-24.6-30.1-34.8-4.8-7.1-9.1-12.9-9.4-13-.4 0-1.6 2.6-2.7 5.7z"/></svg>