<?xml version="1.0" standalone="no"?>
<!DOCTYPE svg PUBLIC "-//W3C//DTD SVG 20010904//EN"
 "http://www.w3.org/TR/2001/REC-SVG-20010904/DTD/svg10.dtd">
<svg version="1.0" xmlns="http://www.w3.org/2000/svg"
 width="745.000000pt" height="742.000000pt" viewBox="0 0 745.000000 742.000000"
 preserveAspectRatio="xMidYMid meet">

<g transform="translate(0.000000,742.000000) scale(0.100000,-0.100000)"
fill="#000000" stroke="none">
<path d="M3590 5441 c-327 -149 -531 -281 -691 -448 -190 -197 -280 -428 -259
-664 9 -109 13 -127 47 -233 66 -203 199 -393 463 -656 231 -231 332 -359 411
-525 124 -260 115 -463 -37 -819 -30 -70 -53 -130 -51 -132 9 -10 281 220 395
334 288 286 422 545 422 813 0 201 -65 378 -218 594 -45 63 -88 114 -299 355
-306 349 -388 713 -244 1080 39 98 121 254 163 309 19 25 23 41 11 41 -5 -1
-55 -22 -113 -49z"/>
<path d="M3788 5403 c-65 -75 -168 -286 -197 -401 -82 -327 12 -600 328 -952
299 -332 421 -540 467 -795 27 -152 14 -280 -46 -450 -39 -110 -68 -168 -131
-264 -27 -41 -47 -76 -44 -79 7 -7 131 78 245 169 413 329 566 705 449 1099
-29 98 -111 254 -184 352 -87 116 -187 215 -390 390 -253 216 -333 304 -404
445 -57 113 -75 201 -76 360 0 79 0 143 -1 143 0 0 -8 -8 -16 -17z"/>
<path d="M2652 3783 c-35 -97 -61 -223 -71 -346 -17 -200 11 -361 86 -508 55
-109 123 -183 276 -305 280 -222 380 -357 421 -568 l13 -71 43 90 c154 327
168 553 50 790 -71 143 -154 247 -396 497 -169 175 -231 246 -301 348 -48 71
-91 129 -94 130 -4 0 -16 -26 -27 -57z"/>
</g>
</svg>
