<?xml version="1.0" encoding="utf-8"?><svg version="1.1" id="Layer_1" xmlns="http://www.w3.org/2000/svg" xmlns:xlink="http://www.w3.org/1999/xlink" x="0px" y="0px" viewBox="0 0 108.48 122.88" style="enable-background:new 0 0 108.48 122.88" xml:space="preserve"><style type="text/css">.st0{fill:#136B0A;} .st1{fill:#8FBA39;} .st2{fill:#318E23;} .st3{fill:#078407;} .st4{fill:#2C9822;}</style><g><path class="st0" d="M43.85,25.94c0.6-3.04,1.4-5.92,2.39-8.67c1.09-3.02,2.4-5.88,3.94-8.65c3.29-5.93,8-8.53,12.1-8.62 c1.78-0.04,3.44,0.38,4.85,1.21c1.44,0.84,2.61,2.09,3.37,3.69c1.6,3.37,1.29,8.28-2.52,13.93c-0.9,1.33-1.7,2.71-2.42,4.15 c-0.42,0.85-0.81,1.71-1.16,2.6c0.36,0.09,0.71,0.18,1.06,0.28c1.83,0.52,3.55,1.17,5.16,1.96c4.71-0.98,9.12-1.24,13.14-0.86 c6.32,0.6,11.7,2.78,15.82,6.22c4.12,3.44,6.95,8.12,8.19,13.73c0.68,3.08,0.88,6.43,0.54,9.98c-0.66,6.92-1.84,15.07-3.46,23.09 c-1.42,7.03-3.17,13.95-5.21,19.84c-4.2,12.14-9.1,19.34-14.81,21.81c-5.6,2.42-11.63,0.48-18.19-5.63 c-3.12,4.06-7.15,6.96-12.38,6.87c-4.91-0.08-8.87-3.13-12.02-7.26c-6.72,6.41-12.88,8.48-18.6,6.02 c-5.71-2.46-10.61-9.66-14.81-21.81c-2.04-5.89-3.79-12.81-5.21-19.84C2,71.98,0.82,63.83,0.16,56.9 c-0.34-3.55-0.14-6.89,0.54-9.98c1.24-5.61,4.07-10.29,8.19-13.73c4.12-3.44,9.5-5.62,15.82-6.22c4.18-0.4,8.78-0.1,13.71,0.98 c0.08,0.02,0.16,0.04,0.24,0.07C40.31,27.28,42.02,26.56,43.85,25.94L43.85,25.94L43.85,25.94z"/><path class="st1" d="M53.03,24.09c2.34-0.02,4.83,0.19,7.48,0.61c0.46-1.2,0.96-2.35,1.51-3.46c0.8-1.63,1.7-3.16,2.68-4.62 c2.91-4.33,3.28-7.8,2.23-10.03c-0.4-0.84-1.02-1.51-1.79-1.96c-0.8-0.47-1.75-0.7-2.78-0.68c-2.84,0.06-6.2,2.04-8.72,6.59 c-1.44,2.59-2.66,5.26-3.67,8.06c-0.68,1.89-1.27,3.85-1.75,5.9C49.74,24.24,51.35,24.1,53.03,24.09L53.03,24.09L53.03,24.09z"/><path class="st2" d="M40.07,112.45c-2.94-4.81-5.02-10.26-6.38-13.9c-3.77-10.11-9.46-29.66-9.06-45.56 c0.24-9.46,2.64-17.7,8.81-22.19c-2.95-0.38-5.74-0.43-8.33-0.19c-5.45,0.52-10.06,2.37-13.56,5.29c-3.5,2.92-5.92,6.93-6.98,11.75 c-0.6,2.72-0.77,5.72-0.46,8.95c0.66,6.88,1.82,14.91,3.4,22.75c1.39,6.9,3.11,13.67,5.09,19.4c3.85,11.12,8.05,17.6,12.72,19.61 C29.48,120.15,34.37,118.13,40.07,112.45L40.07,112.45L40.07,112.45z"/><path class="st3" d="M75.23,30.76c8.48,6.86,9.87,19.37,8.43,32.24c-1.4,12.59-5.47,25.51-8.12,33.59 c-0.01,0.03-0.02,0.05-0.03,0.08l-0.15,0.47c-1.4,4.26-3.42,10.45-6.56,15.68c5.53,5.38,10.3,7.27,14.36,5.52 c4.66-2.01,8.87-8.48,12.72-19.61c1.98-5.72,3.69-12.49,5.09-19.39c1.58-7.84,2.74-15.87,3.4-22.75c0.31-3.23,0.14-6.23-0.46-8.95 c-1.06-4.82-3.48-8.82-6.98-11.75c-3.5-2.92-8.11-4.77-13.56-5.29C80.83,30.36,78.11,30.4,75.23,30.76L75.23,30.76L75.23,30.76z"/><path class="st4" d="M61.41,28.87c-3.02-0.56-5.81-0.85-8.36-0.83c-1.49,0.01-2.91,0.13-4.24,0.37c-3.75,0.75-6.92,2.2-9.96,3.6 l-0.7,0.32l0,0h-0.01c-6.78,3.1-9.31,11.15-9.56,20.71c-0.39,15.37,5.17,34.43,8.86,44.31c1.39,3.72,3.54,9.36,6.51,14 c2.77,4.33,6.23,7.82,10.37,7.89c9.59,0.16,14.62-15.2,17.22-23.14l0.16-0.49c0.01-0.03,0.02-0.06,0.02-0.08 c2.62-7.97,6.62-20.69,7.98-32.91c1.33-11.89,0.19-23.31-7.19-29.2c-2.32-1.85-5.09-3.18-8.22-4.07c-0.66-0.19-1.33-0.35-2.02-0.5 C62.01,28.92,61.71,28.93,61.41,28.87L61.41,28.87L61.41,28.87z"/></g></svg>