<?xml version="1.0" encoding="utf-8"?><svg version="1.1" id="Layer_1" xmlns="http://www.w3.org/2000/svg" xmlns:xlink="http://www.w3.org/1999/xlink" x="0px" y="0px" viewBox="0 0 122.88 122.84" style="enable-background:new 0 0 122.88 122.84" xml:space="preserve"><style type="text/css">.st0{fill-rule:evenodd;clip-rule:evenodd;fill:#659C35;} .st1{fill-rule:evenodd;clip-rule:evenodd;fill:#D13834;}</style><g><path class="st0" d="M88.32,55.95c-6.15-5.06-10.19-13.67-11.37-22.59c-1.28-9.67,0.47-19.83,5.46-27.05l0,0l0.15-0.21 c1.22-1.75,0.8-4.17-0.96-5.39c-1.75-1.22-4.17-0.8-5.39,0.96l-0.16,0.23L76.03,1.9l0,0c-2.14,3.09-3.79,6.59-4.98,10.33 C68.06,5.2,63.4,2.09,57.74,1.3C51.9,0.48,46.59,2.17,41.03,3.68c-3.8,1.03-7.57,2.12-11.31,3.25c2.2,3.59,5.07,6.64,8.63,9.12 c1.75,1.21,3.61,2.27,5.55,3.15c8.13,3.65,19.39,4.08,25.97-2.48c-0.19,0.9-0.35,1.8-0.49,2.72c-10.49,6.1-19.75,13.19-26.94,21.92 C35.82,49.4,31,58.79,28.64,70l7.55,1.79c2.08-10.01,6.35-18.37,12.23-25.52c5.52-6.71,12.48-12.4,20.39-17.43 c0.05,1.84,0.2,3.68,0.44,5.5c1.27,9.6,5.41,19.04,11.74,25.45L88.32,55.95L88.32,55.95z"/><path class="st1" d="M76.18,97.81c4.85,5.77,12.12,9.44,20.26,9.44c14.61,0,26.45-11.84,26.45-26.45c0-8.9-4.4-16.77-11.14-21.57 l0,0l-0.23-0.16l-0.01-0.01c-4.23-2.85-9.32-4.52-14.8-4.52c-14.63,0-26.5,11.86-26.5,26.5C70.2,87.4,72.44,93.24,76.18,97.81 L76.18,97.81z M112.01,93.75c0.5-0.67,0.36-1.63-0.31-2.13c-0.67-0.5-1.63-0.36-2.13,0.31c-1.25,1.67-2.64,3.09-4.17,4.26 c-1.53,1.16-3.19,2.08-5,2.77c-0.79,0.3-1.18,1.17-0.89,1.96c0.3,0.79,1.17,1.18,1.96,0.89c2.08-0.79,4.01-1.85,5.77-3.2 C109,97.26,110.59,95.64,112.01,93.75L112.01,93.75L112.01,93.75z"/><path class="st1" d="M28.64,70l-0.01,0.03c-0.72-0.06-1.45-0.09-2.19-0.09C11.84,69.94,0,81.78,0,96.39 c0,14.61,11.84,26.45,26.45,26.45c2.69,0,5.29-0.4,7.74-1.15c10.77-3.37,18.58-13.42,18.58-25.29C52.77,82.56,42.16,71.2,28.64,70 L28.64,70z M10.87,109.34c-0.5-0.67-0.36-1.63,0.31-2.13c0.67-0.5,1.63-0.37,2.13,0.31c1.25,1.67,2.64,3.09,4.17,4.26 c1.53,1.16,3.19,2.08,5,2.77c0.79,0.3,1.18,1.17,0.89,1.96c-0.3,0.79-1.17,1.18-1.96,0.89c-2.08-0.79-4.01-1.85-5.77-3.2 C13.88,112.85,12.29,111.23,10.87,109.34L10.87,109.34L10.87,109.34z"/></g></svg>