<svg xmlns="http://www.w3.org/2000/svg" viewBox="0 0 106.06 122.88" fill-rule="evenodd" xmlns:v="https://vecta.io/nano"><path d="M41.57 31.85C7.85 21.26-10.8 60.03 6.67 90.74c5.23 9.19 11.57 18.65 21.4 27.25 9.35 6.7 17.58 5.78 25.19 1.63 6.05 2.87 12.45 4.01 19.33 1.43 10.11-3.8 20.41-18.8 25.26-28.07 10.6-20.27 14.2-46.28-9.44-58.96-6.45-3.46-14.52-4.47-24.74-2.18-6.8 2.34-15.25 2.1-22.1.01h0z" fill="#d3141b"/><path d="M33.99 28.12c5.16.64 10.71-.55 16.69-3.75l1.14-5.83C45.3 7.04 34.29 1.09 16.17 3.86l-7.12.75c5.21 10.83 11.64 21.88 24.94 23.51h0 0z" fill="#7db820"/><path d="M17.3 8.52c11.85 4.1 19.55 5.74 29.5 13.44-11.74-3.86-19.19-6.39-29.5-13.44h0z" fill="#537918"/><path d="M50.08 25.82l.07-.04c-.34 2.54-.49 4.89-.46 7.69l6.31.13c-.07-5.33.62-9.87 1.99-14.06 1.83-5.58 4.92-10.23 9.07-14.07 1.28-1.18 1.36-3.17.19-4.45C66.07-.26 64.08-.34 62.8.83 57.85 5.4 54.19 10.93 52 17.59c-.28.86-.55 1.75-.78 2.65l-.04-.07-1.1 5.65h0z" fill="#543429"/><path d="M16.87 78.58a2.39 2.39 0 0 1 3.03 1.51c1.35 4.04 3.37 7.67 5.88 10.98 2.56 3.35 5.63 6.38 9.07 9.18 1.02.83 1.18 2.34.35 3.37-.83 1.02-2.34 1.18-3.37.35-3.73-3.03-7.06-6.33-9.85-9.99-2.83-3.71-5.09-7.79-6.62-12.36-.41-1.26.26-2.61 1.51-3.04h0 0z" fill="#fff"/></svg>