<svg xmlns="http://www.w3.org/2000/svg" viewBox="0 0 106.31 122.88" xmlns:v="https://vecta.io/nano"><path d="M59.4 32.76c3.94 3.05 7.31 7.09 9.96 11.87 4.78 8.63 7.26 19.69 6.61 31.59-.06 1.29-1.17 2.29-2.47 2.22-1.29-.06-2.29-1.17-2.22-2.47.6-11.02-1.66-21.19-6.02-29.07-4.15-7.48-10.19-12.86-17.47-14.84-8.44-1.39-15.77-.27-21.82 2.62-6.26 2.99-11.19 7.86-14.56 13.8-3.42 6.03-5.25 13.12-5.28 20.45-.05 10.81 3.79 22.15 12.23 31.33 4.25 4.62 9.53 8.49 15.85 11.62 6.24 3.1 13.48 5.47 21.72 7.15 7.48-2.29 14.16-5.14 19.97-8.58 5.89-3.5 10.9-7.59 14.93-12.36 7.56-8.92 11.28-19.41 11.56-29.4.2-7.33-1.44-14.37-4.77-20.3-3.29-5.87-8.26-10.64-14.73-13.49-6.38-2.83-14.25-3.79-23.49-2.14h0 0z" fill="#ff714c"/><path d="M44.12 18.92c-1.89-.53-3.9-.92-5.98-1.18-6.28-.76-13.24-.21-19.96 1.87a2.33 2.33 0 0 1-2.92-1.55c-.38-1.24.31-2.55 1.55-2.92 7.37-2.28 14.99-2.88 21.88-2.05 1.69.2 3.34.5 4.94.87-2.61-3.02-5.74-4.98-9.17-6.03-5.65-1.72-12.17-1.05-18.51 1.38-2.15.82-4.25 1.83-6.29 2.97-1.36.76-2.68 1.58-3.98 2.46a37.04 37.04 0 0 0 4.44 4.15c5.82 4.55 12.12 6.35 17.99 6.18 5.84-.17 11.26-2.3 15.34-5.59.23-.18.45-.37.67-.56h0 0z" fill="#5e990b"/><path d="M52.73 28.84c-.25-2.07-.34-4.02-.28-5.86-1.21-.87-2.56-1.65-4.02-2.33-.8.85-1.67 1.65-2.6 2.39-3.71 2.98-7.63 4.74-12.23 5.73-1.16.25-2.32.46-3.5.65-.71.07-1.43.12-2.16.14-6.78.2-14.03-1.85-20.69-7.07-2.34-1.84-4.61-4.06-6.74-6.7-.8-.99-.64-2.44.35-3.24l.21-.15c2.08-1.51 4.18-2.88 6.3-4.07 2.2-1.24 4.47-2.33 6.81-3.22 7.15-2.74 14.62-3.47 21.23-1.45 5.99 1.83 11.22 5.88 14.81 12.67.02.03.03.06.05.1a33.94 33.94 0 0 1 2.75 1.43c.37-1.81.9-3.5 1.58-5.08 2.28-5.3 6.22-9.31 11.28-12.43 1.08-.67 2.5-.33 3.17.75s.33 2.5-.75 3.17c-4.27 2.64-7.58 5.97-9.46 10.34-.91 2.12-1.5 4.49-1.7 7.17.01.19 0 .37-.04.56-.13 2.15-.02 4.5.36 7.06l-4.73-.56h0zm-9.13-9.96c-1.86-.52-3.84-.91-5.89-1.16-6.19-.75-13.05-.21-19.68 1.84a2.31 2.31 0 0 1-2.88-1.53c-.37-1.22.31-2.51 1.53-2.88 7.27-2.25 14.78-2.84 21.57-2.02 1.67.2 3.29.49 4.87.86-2.57-2.98-5.66-4.91-9.04-5.94-5.57-1.7-12-1.03-18.25 1.36a46.67 46.67 0 0 0-6.2 2.93c-1.34.75-2.64 1.56-3.92 2.42 1.42 1.56 2.89 2.92 4.38 4.09 5.74 4.49 11.95 6.26 17.73 6.09 5.76-.17 11.1-2.27 15.12-5.51.22-.17.44-.36.66-.55h0 0z"/><path d="M56.77 29.4c10.85-2.31 20.14-1.29 27.65 2.03 7.31 3.23 12.9 8.6 16.61 15.21 3.67 6.54 5.48 14.28 5.26 22.3-.31 10.79-4.3 22.11-12.43 31.69-4.3 5.08-9.6 9.43-15.82 13.12-6.17 3.65-13.25 6.65-21.17 9.03a2.29 2.29 0 0 1-1.1.05c-8.7-1.72-16.38-4.22-23.02-7.51-6.71-3.33-12.35-7.46-16.9-12.41C6.73 93 2.58 80.74 2.64 69.04c.04-7.99 2.05-15.73 5.77-22.3 3.77-6.64 9.28-12.09 16.31-15.44 1.49-.71 3.04-1.32 4.66-1.83L36 27.99l-.13.04h0c3.83-.5 7.93-.46 12.3.2a2.54 2.54 0 0 1 .61.07l.3.08c.98.17 1.97.36 2.97.59l-.02-.19 4.71.41.03.21h0 0zm2.74 4.16c3.87 2.99 7.17 6.96 9.77 11.65 4.69 8.47 7.12 19.32 6.49 30.99a2.3 2.3 0 1 1-4.6-.24c.59-10.81-1.63-20.79-5.91-28.52-4.07-7.34-10-12.62-17.14-14.56-8.28-1.36-15.47-.26-21.41 2.57-6.14 2.93-10.98 7.71-14.28 13.54-3.36 5.91-5.16 12.87-5.19 20.06-.05 10.61 3.72 21.73 12 30.74 4.17 4.53 9.35 8.33 15.55 11.4 6.12 3.04 13.23 5.37 21.31 7.01 7.34-2.25 13.89-5.04 19.59-8.42 5.78-3.43 10.69-7.45 14.65-12.13 7.42-8.75 11.07-19.04 11.34-28.84.2-7.19-1.41-14.1-4.68-19.92-3.23-5.76-8.1-10.44-14.45-13.24-6.25-2.76-13.97-3.71-23.04-2.09h0 0z"/></svg>