<svg xmlns="http://www.w3.org/2000/svg" viewBox="0 0 122.88 76.78" xmlns:v="https://vecta.io/nano"><path d="M52.85 15.91c2.07-2.16 5.12-3.73 9.1-4.75l.12-.03c3.85-.97 8.6-1.45 14.2-1.45l3.69-.03c4.08-.04 8.9-.08 13.71.19 2.4.14 4.8.35 7.11.68 2.33.34 4.6.79 6.69 1.41 2.16.63 4.14 1.45 5.86 2.47 1.78 1.05 3.26 2.34 4.39 3.9.77 1.07 1.46 2.25 2.07 3.54.61 1.28 1.14 2.69 1.59 4.21l.01.03h0c1.71 6.39 1.9 12.34.79 17.7-1.17 5.63-3.77 10.58-7.56 14.67-2.59 2.8-5.69 5.21-9.34 7.15-3.46 1.84-7.42 3.26-11.9 4.17-5.92 1.2-11.28 1.53-16.12 1.09-4.87-.44-9.24-1.65-13.13-3.52-6.35-3.03-11.44-8.56-14.76-15.05-3.47-6.75-5.03-14.57-4.15-21.71.36-2.9 1.17-5.65 2.49-8.18 1.25-2.38 2.95-4.57 5.14-6.49h0 0z" fill="#8b5016"/><path d="M62.62 13.81c-3.51.9-6.14 2.23-7.84 4.02h0a.9.9 0 0 1-.1.09c-1.94 1.69-3.44 3.63-4.55 5.75-1.16 2.24-1.88 4.68-2.21 7.26-.82 6.62.64 13.87 3.86 20.15 3.07 5.98 7.73 11.07 13.52 13.85 3.61 1.73 7.66 2.85 12.2 3.26 4.58.41 9.67.1 15.33-1.05 4.2-.86 7.92-2.19 11.16-3.91 3.39-1.8 6.26-4.03 8.63-6.59 3.45-3.72 5.82-8.23 6.88-13.37 1.03-4.94.84-10.48-.75-16.45h0c-.41-1.37-.89-2.63-1.43-3.78-.55-1.15-1.15-2.19-1.82-3.12-.89-1.24-2.1-2.28-3.57-3.14-1.52-.91-3.3-1.62-5.24-2.2-1.96-.58-4.09-1.01-6.31-1.32-2.24-.32-4.56-.53-6.88-.67-4.78-.27-9.52-.23-13.53-.19l-3.71.03c-5.38 0-9.9.44-13.53 1.36-.03 0-.07.01-.11.02h0 0z" fill="#e8a660"/><path d="M112.08 36.59a1.37 1.37 0 0 1 1.6-1.08 1.37 1.37 0 0 1 1.08 1.6l-.86 3.6-1.08 3.26a33.51 33.51 0 0 1-1.45 3.25 26.52 26.52 0 0 1-1.71 2.87c-.42.62-1.27.78-1.89.36s-.78-1.27-.36-1.89c.55-.81 1.06-1.66 1.53-2.58.48-.92.92-1.91 1.32-2.97l1-3.02c.32-1.07.58-2.2.82-3.4h0 0zM39 1.22c2.9.71 5.79 2.57 8.66 5.51.03.03.05.06.08.09 2.77 2.85 5.55 6.73 8.35 11.58l1.87 3.18c2.07 3.52 4.52 7.67 6.69 11.96 1.08 2.15 2.09 4.33 2.96 6.5.88 2.19 1.61 4.38 2.12 6.5.53 2.18.82 4.31.79 6.31-.02 2.06-.39 4-1.18 5.75-.54 1.21-1.22 2.39-2.03 3.57-.8 1.17-1.76 2.33-2.85 3.48l-.02.02h0c-4.68 4.67-9.74 7.82-14.94 9.53-5.46 1.8-11.05 2.03-16.48.79-3.71-.84-7.36-2.32-10.86-4.51-3.32-2.08-6.53-4.79-9.56-8.22-4-4.53-6.96-9-9.01-13.42C1.54 45.4.4 41.01.08 36.71-.47 29.69 1.77 22.52 5.73 16.4c4.11-6.38 10.1-11.64 16.73-14.45C25.15.81 27.94.14 30.79.02c2.7-.12 5.45.26 8.21 1.2h0 0z" fill="#8b5016"/><path d="M45.7 8.63c-2.54-2.59-5-4.2-7.4-4.78h0c-.04-.01-.09-.02-.12-.04a19.56 19.56 0 0 0-7.26-1.07c-2.52.11-4.99.71-7.39 1.72-6.14 2.6-11.69 7.49-15.52 13.42-3.65 5.65-5.72 12.23-5.23 18.63.3 3.99 1.36 8.06 3.27 12.2 1.93 4.18 4.75 8.43 8.57 12.75 2.84 3.21 5.85 5.76 8.97 7.71 3.26 2.04 6.62 3.4 10.02 4.18a27.77 27.77 0 0 0 15.02-.72c4.8-1.58 9.49-4.52 13.87-8.88h0c.98-1.04 1.83-2.08 2.56-3.13s1.32-2.1 1.79-3.14c.63-1.39.92-2.96.94-4.66.02-1.77-.24-3.67-.71-5.63-.48-1.98-1.17-4.05-2.01-6.13-.84-2.11-1.82-4.22-2.86-6.29-2.15-4.28-4.56-8.36-6.6-11.82l-1.88-3.2c-2.69-4.66-5.34-8.35-7.94-11.04-.03-.02-.06-.05-.09-.08h0 0z" fill="#e8a660"/><path d="M50.7 62.85c.72-.24 1.49.13 1.73.84.24.72-.13 1.49-.84 1.73l-3.55 1.06-3.36.7c-1.21.2-2.39.31-3.54.37-1.16.05-2.26.04-3.33-.04-.75-.06-1.31-.71-1.25-1.46s.71-1.31 1.46-1.25a24.86 24.86 0 0 0 3 .04c1.03-.05 2.11-.16 3.24-.34l3.12-.64 3.32-1.01h0 0zM28.67 48.47c.64 1.11.26 2.54-.85 3.18s-2.54.26-3.18-.85-.26-2.54.85-3.18c1.12-.65 2.54-.27 3.18.85h0zM23.51 56c.64 1.11.26 2.54-.85 3.18s-2.54.26-3.18-.85-.26-2.54.85-3.18 2.53-.26 3.18.85h0zm-3.17-7.27c.4.69.16 1.56-.52 1.96-.69.4-1.56.16-1.96-.52-.4-.69-.16-1.56.52-1.96.69-.4 1.57-.17 1.96.52h0zm23.92-32.66c.64 1.11.26 2.54-.85 3.18s-2.54.26-3.18-.85-.26-2.54.85-3.18c1.11-.65 2.54-.27 3.18.85h0zm-5.17 7.53c.64 1.11.26 2.54-.85 3.18s-2.54.26-3.18-.85-.26-2.54.85-3.18a2.33 2.33 0 0 1 3.18.85h0zm-3.16-7.27c.4.69.16 1.56-.52 1.96-.69.4-1.56.16-1.96-.52-.4-.69-.16-1.56.52-1.96a1.43 1.43 0 0 1 1.96.52h0zm63.25 6.3a1.43 1.43 0 1 1 0 2.86 1.43 1.43 0 1 1 0-2.86h0zm2.42 5.06a1.43 1.43 0 1 1 0 2.86 1.43 1.43 0 1 1 0-2.86h0zm-4.84-.55c.49 0 .88.39.88.88s-.39.88-.88.88-.88-.39-.88-.88.39-.88.88-.88h0z" fill="#8b5016"/></svg>