<?xml version="1.0" encoding="utf-8"?><svg version="1.1" id="Layer_1" xmlns="http://www.w3.org/2000/svg" xmlns:xlink="http://www.w3.org/1999/xlink" x="0px" y="0px" viewBox="0 0 122.88 76.78" style="enable-background:new 0 0 122.88 76.78" xml:space="preserve"><style type="text/css">.st0{fill:#8B5016;} .st1{fill:#E8A660;}</style><g><path class="st0" d="M52.85,15.91c2.07-2.16,5.12-3.73,9.1-4.75c0.04-0.01,0.08-0.02,0.12-0.03c3.85-0.97,8.6-1.45,14.2-1.45 c1.13,0,2.37-0.01,3.69-0.03c4.08-0.04,8.9-0.08,13.71,0.19c2.4,0.14,4.8,0.35,7.11,0.68c2.33,0.34,4.6,0.79,6.69,1.41 c2.16,0.63,4.14,1.45,5.86,2.47c1.78,1.05,3.26,2.34,4.39,3.9c0.77,1.07,1.46,2.25,2.07,3.54c0.61,1.28,1.14,2.69,1.59,4.21 l0.01,0.03l0,0c1.71,6.39,1.9,12.34,0.79,17.7c-1.17,5.63-3.77,10.58-7.56,14.67c-2.59,2.8-5.69,5.21-9.34,7.15 c-3.46,1.84-7.42,3.26-11.9,4.17c-5.92,1.2-11.28,1.53-16.12,1.09c-4.87-0.44-9.24-1.65-13.13-3.52 c-6.35-3.03-11.44-8.56-14.76-15.05c-3.47-6.75-5.03-14.57-4.15-21.71c0.36-2.9,1.17-5.65,2.49-8.18 C48.96,20.02,50.66,17.83,52.85,15.91L52.85,15.91L52.85,15.91z"/><path class="st1" d="M62.62,13.81c-3.51,0.9-6.14,2.23-7.84,4.02l0,0c-0.03,0.03-0.06,0.06-0.1,0.09 c-1.94,1.69-3.44,3.63-4.55,5.75c-1.16,2.24-1.88,4.68-2.21,7.26c-0.82,6.62,0.64,13.87,3.86,20.15 c3.07,5.98,7.73,11.07,13.52,13.85c3.61,1.73,7.66,2.85,12.2,3.26c4.58,0.41,9.67,0.1,15.33-1.05c4.2-0.86,7.92-2.19,11.16-3.91 c3.39-1.8,6.26-4.03,8.63-6.59c3.45-3.72,5.82-8.23,6.88-13.37c1.03-4.94,0.84-10.48-0.75-16.45l0,0 c-0.41-1.37-0.89-2.63-1.43-3.78c-0.55-1.15-1.15-2.19-1.82-3.12c-0.89-1.24-2.1-2.28-3.57-3.14c-1.52-0.91-3.3-1.62-5.24-2.2 c-1.96-0.58-4.09-1.01-6.31-1.32c-2.24-0.32-4.56-0.53-6.88-0.67c-4.78-0.27-9.52-0.23-13.53-0.19c-1.32,0.01-2.56,0.03-3.71,0.03 c-5.38,0-9.9,0.44-13.53,1.36C62.7,13.79,62.66,13.8,62.62,13.81L62.62,13.81L62.62,13.81z"/><path class="st0" d="M112.08,36.59c0.15-0.74,0.86-1.22,1.6-1.08c0.74,0.15,1.22,0.86,1.08,1.6c-0.25,1.26-0.53,2.45-0.86,3.6 c-0.32,1.15-0.68,2.24-1.08,3.26c-0.44,1.15-0.93,2.23-1.45,3.25c-0.53,1.03-1.1,1.98-1.71,2.87c-0.42,0.62-1.27,0.78-1.89,0.36 c-0.62-0.42-0.78-1.27-0.36-1.89c0.55-0.81,1.06-1.66,1.53-2.58c0.48-0.92,0.92-1.91,1.32-2.97c0.37-0.96,0.7-1.97,1-3.02 C111.58,38.92,111.84,37.79,112.08,36.59L112.08,36.59L112.08,36.59z"/><path class="st0" d="M39,1.22c2.9,0.71,5.79,2.57,8.66,5.51c0.03,0.03,0.05,0.06,0.08,0.09c2.77,2.85,5.55,6.73,8.35,11.58 c0.56,0.98,1.2,2.05,1.87,3.18c2.07,3.52,4.52,7.67,6.69,11.96c1.08,2.15,2.09,4.33,2.96,6.5c0.88,2.19,1.61,4.38,2.12,6.5 c0.53,2.18,0.82,4.31,0.79,6.31c-0.02,2.06-0.39,4-1.18,5.75c-0.54,1.21-1.22,2.39-2.03,3.57c-0.8,1.17-1.76,2.33-2.85,3.48 l-0.02,0.02l0,0c-4.68,4.67-9.74,7.82-14.94,9.53c-5.46,1.8-11.05,2.03-16.48,0.79c-3.71-0.84-7.36-2.32-10.86-4.51 c-3.32-2.08-6.53-4.79-9.56-8.22c-4-4.53-6.96-9-9.01-13.42c-2.05-4.44-3.19-8.83-3.51-13.13c-0.55-7.02,1.69-14.19,5.65-20.31 c4.11-6.38,10.1-11.64,16.73-14.45c2.69-1.14,5.48-1.81,8.33-1.93C33.49-0.1,36.24,0.28,39,1.22L39,1.22L39,1.22z"/><path class="st1" d="M45.7,8.63c-2.54-2.59-5-4.2-7.4-4.78l0,0c-0.04-0.01-0.09-0.02-0.12-0.04c-2.43-0.84-4.86-1.17-7.26-1.07 c-2.52,0.11-4.99,0.71-7.39,1.72c-6.14,2.6-11.69,7.49-15.52,13.42c-3.65,5.65-5.72,12.23-5.23,18.63c0.3,3.99,1.36,8.06,3.27,12.2 c1.93,4.18,4.75,8.43,8.57,12.75c2.84,3.21,5.85,5.76,8.97,7.71c3.26,2.04,6.62,3.4,10.02,4.18c4.95,1.13,10.04,0.92,15.02-0.72 c4.8-1.58,9.49-4.52,13.87-8.88l0,0c0.98-1.04,1.83-2.08,2.56-3.13c0.73-1.05,1.32-2.1,1.79-3.14c0.63-1.39,0.92-2.96,0.94-4.66 c0.02-1.77-0.24-3.67-0.71-5.63c-0.48-1.98-1.17-4.05-2.01-6.13c-0.84-2.11-1.82-4.22-2.86-6.29c-2.15-4.28-4.56-8.36-6.6-11.82 c-0.67-1.14-1.3-2.21-1.88-3.2c-2.69-4.66-5.34-8.35-7.94-11.04C45.76,8.69,45.73,8.66,45.7,8.63L45.7,8.63L45.7,8.63z"/><path class="st0" d="M50.7,62.85c0.72-0.24,1.49,0.13,1.73,0.84c0.24,0.72-0.13,1.49-0.84,1.73c-1.21,0.41-2.39,0.77-3.55,1.06 c-1.16,0.3-2.28,0.53-3.36,0.7c-1.21,0.2-2.39,0.31-3.54,0.37c-1.16,0.05-2.26,0.04-3.33-0.04c-0.75-0.06-1.31-0.71-1.25-1.46 c0.06-0.75,0.71-1.31,1.46-1.25c0.97,0.07,1.97,0.09,3,0.04c1.03-0.05,2.11-0.16,3.24-0.34c1.02-0.16,2.06-0.38,3.12-0.64 C48.44,63.58,49.55,63.25,50.7,62.85L50.7,62.85L50.7,62.85z"/><path class="st0" d="M28.67,48.47c0.64,1.11,0.26,2.54-0.85,3.18c-1.11,0.64-2.54,0.26-3.18-0.85c-0.64-1.11-0.26-2.54,0.85-3.18 C26.61,46.97,28.03,47.35,28.67,48.47L28.67,48.47z M23.51,56c0.64,1.11,0.26,2.54-0.85,3.18c-1.11,0.64-2.54,0.26-3.18-0.85 c-0.64-1.11-0.26-2.54,0.85-3.18C21.44,54.51,22.86,54.89,23.51,56L23.51,56z M20.34,48.73c0.4,0.69,0.16,1.56-0.52,1.96 c-0.69,0.4-1.56,0.16-1.96-0.52c-0.4-0.69-0.16-1.56,0.52-1.96C19.07,47.81,19.95,48.04,20.34,48.73L20.34,48.73z M44.26,16.07 c0.64,1.11,0.26,2.54-0.85,3.18c-1.11,0.64-2.54,0.26-3.18-0.85c-0.64-1.11-0.26-2.54,0.85-3.18 C42.19,14.57,43.62,14.95,44.26,16.07L44.26,16.07z M39.09,23.6c0.64,1.11,0.26,2.54-0.85,3.18c-1.11,0.64-2.54,0.26-3.18-0.85 c-0.64-1.11-0.26-2.54,0.85-3.18C37.03,22.11,38.45,22.49,39.09,23.6L39.09,23.6z M35.93,16.33c0.4,0.69,0.16,1.56-0.52,1.96 c-0.69,0.4-1.56,0.16-1.96-0.52c-0.4-0.69-0.16-1.56,0.52-1.96C34.65,15.41,35.53,15.64,35.93,16.33L35.93,16.33z M99.18,22.63 c0.79,0,1.43,0.64,1.43,1.43c0,0.79-0.64,1.43-1.43,1.43c-0.79,0-1.43-0.64-1.43-1.43C97.75,23.27,98.39,22.63,99.18,22.63 L99.18,22.63z M101.6,27.69c0.79,0,1.43,0.64,1.43,1.43c0,0.79-0.64,1.43-1.43,1.43c-0.79,0-1.43-0.64-1.43-1.43 C100.17,28.33,100.81,27.69,101.6,27.69L101.6,27.69z M96.76,27.14c0.49,0,0.88,0.39,0.88,0.88s-0.39,0.88-0.88,0.88 c-0.49,0-0.88-0.39-0.88-0.88S96.27,27.14,96.76,27.14L96.76,27.14z"/></g></svg>