<svg xmlns="http://www.w3.org/2000/svg" viewBox="0 0 122.99 119.45" fill-rule="evenodd" xmlns:v="https://vecta.io/nano"><path d="M61.11 1.77c2.01 8.85 3.96 17.04 5.62 21.54 4.95-.24 8.16-1.58 11.52-2.81 4.13-1.52 7.6-3.47 10.62-5.74 2.3-1.51 3.6-.82 3.41 3.08-.7 3.63-2.57 6.4-5.41 8.49.15-.01.3-.01.45-.02l-1.66.16h0c7.15 2.1 12.36 6.45 14.18 14.68.13 4.15-.98 6.06-2.72 3.68-9.16-7.27-17.26-11.14-25.06-9.17 2.63 6.27 8.12 10.6 13.8 15.26-10.22.15-19.56-3.83-27.82-11.72-9.23 4.53-22.67 3.29-27.74 10.35-2.96 3.63-3.53 1.79-2.74-3.16C29.72 38.5 33.4 33.4 38.78 31.4c-7.91.3-13.53-1.52-16.99-3.5 4.03-1.51 8.97-1.68 14.56-2.29l-8.25-3.35c-1.46-.95-.82-1.52 1.55-1.76 10.6-.4 19.89.09 26.87 2.2-.11-5.91-2.61-11.82-5.51-17.73L58.57 0l2.54 1.77h0 0z" fill="#75aa00"/><path d="M84.77 26.27c6.89 2.03 11.92 6.22 13.67 14.16.13 4-.43 5.59-2.11 3.29-8.83-7.01-17.16-10.48-24.69-8.58 2.53 6.05 7.57 10.78 13.05 15.28-9.86.14-18.6-4.26-26.57-11.87-8.9 4.37-21.86 3.17-26.76 9.99-2.86 3.5-3.41 1.73-2.64-3.05 2.08-7.61 5.63-12.53 10.82-14.46-8.52.32-14.15-.84-17.36-3.24-4.36 1.46-7.73 3.41-10.07 5.88h0c-.05.05-.11.11-.17.16-3.28 2.86-5.83 6.14-7.71 9.75C2.26 47.37 1.04 51.51.5 55.87-.9 67.09 1.57 79.38 7.03 90.03c5.21 10.15 13.1 18.78 22.93 23.48 6.11 2.93 12.98 4.84 20.69 5.54 7.78.7 16.41.17 26.01-1.78 7.13-1.46 13.43-3.71 18.94-6.64 5.75-3.06 10.61-6.84 14.63-11.17 5.85-6.31 9.87-13.97 11.67-22.67 1.74-8.39 1.42-17.77-1.28-27.9h0c-.69-2.32-1.51-4.45-2.43-6.42-.93-1.95-1.95-3.71-3.08-5.28-3.57-4.96-8.23-8.17-13.83-9.85-4.81-1.43-10.35-1.74-16.51-1.07h0 0z" fill="#f23329"/><g fill="#d61d1d"><path d="M37.22 32.14c.73-.45 1.51-.82 2.32-1.13l-2.22.05-.1 1.08h0zM10.1 35.53c-2.42 2.43-4.37 5.13-5.88 8.04C2.25 47.36 1.03 51.5.49 55.86-.9 67.09 1.57 79.38 7.03 90.03c5.21 10.15 13.1 18.78 22.93 23.48 6.11 2.93 12.98 4.84 20.69 5.54 7.78.7 16.41.17 26.01-1.78 7.13-1.46 13.43-3.71 18.94-6.64 5.75-3.06 10.61-6.84 14.63-11.17 4.67-5.04 8.18-10.94 10.32-17.55-25.87 48.2-128.8 32.6-110.45-46.38h0z" stroke="#f60d11" stroke-width=".216" stroke-miterlimit="2.6131"/><path d="M111.52 80.73a2.09 2.09 0 1 1-4.11-.79c1.22-6.49 1.37-12.12.66-17.05-.71-4.87-2.27-9.06-4.49-12.75-.6-.99-.28-2.27.71-2.87s2.27-.28 2.87.71c2.5 4.15 4.25 8.86 5.05 14.3.79 5.4.63 11.49-.69 18.45h0 0z"/></g></svg>