<?xml version="1.0" standalone="no"?>
<!DOCTYPE svg PUBLIC "-//W3C//DTD SVG 20010904//EN"
 "http://www.w3.org/TR/2001/REC-SVG-20010904/DTD/svg10.dtd">
<svg version="1.0" xmlns="http://www.w3.org/2000/svg"
 width="1500.000000pt" height="400.000000pt" viewBox="0 0 1500.000000 400.000000"
 preserveAspectRatio="xMidYMid meet">
<metadata>
Created by potrace 1.16, written by Peter Selinger 2001-2019
</metadata>
<g transform="translate(0.000000,400.000000) scale(0.100000,-0.100000)"
fill="#000000" stroke="none">
<path d="M3770 2925 l0 -255 75 0 c52 0 77 -4 80 -12 13 -43 335 -1184 335
-1190 0 -5 -16 -8 -35 -8 l-35 0 0 -260 0 -260 510 0 510 0 0 260 0 260 -46 0
c-39 0 -45 3 -40 18 7 20 296 1038 321 1130 l18 62 88 0 89 0 0 255 0 255
-405 0 -405 0 0 -255 0 -255 31 0 c21 0 30 -4 27 -12 -2 -7 -47 -165 -99 -350
-82 -294 -109 -375 -109 -325 0 6 -43 163 -95 346 -52 184 -95 336 -95 338 0
2 14 3 30 3 l30 0 0 255 0 255 -390 0 -390 0 0 -255z m750 0 l0 -215 -41 0
c-34 0 -39 -3 -35 -17 3 -10 58 -200 121 -423 64 -222 118 -406 120 -409 3 -2
7 -2 11 1 3 3 40 129 84 279 43 151 97 337 119 414 23 77 41 143 41 147 0 5
-16 8 -35 8 l-35 0 0 215 0 215 370 0 370 0 0 -215 0 -215 -84 0 -84 0 -11
-32 c-5 -18 -30 -105 -55 -193 -51 -181 -222 -787 -266 -944 -17 -57 -30 -108
-30 -112 0 -5 24 -9 53 -9 l52 0 -3 -220 -3 -220 -479 -2 -480 -3 0 223 0 222
46 0 c38 0 45 3 41 18 -5 16 -58 205 -251 887 -46 165 -89 319 -96 343 l-11
42 -74 0 -75 0 0 215 0 215 360 0 360 0 0 -215z"/>
<path d="M3870 2925 l0 -134 62 -3 63 -3 207 -725 c114 -399 208 -726 208
-727 0 -2 -27 -3 -60 -3 l-60 0 0 -135 0 -135 410 0 410 0 0 135 0 135 -65 0
c-36 0 -65 4 -65 9 0 5 88 316 195 692 108 376 200 701 206 722 l10 37 69 0
70 0 0 135 0 135 -295 0 -295 0 0 -135 0 -135 51 0 c41 0 50 -3 46 -15 -7 -16
-283 -986 -318 -1112 -12 -46 -25 -83 -29 -83 -3 0 -16 37 -28 83 -12 45 -42
152 -66 237 -181 640 -246 872 -246 880 0 6 20 10 45 10 l45 0 0 135 0 135
-285 0 -285 0 0 -135z"/>
<path d="M5730 2925 l0 -255 55 0 55 0 0 -605 0 -605 -55 0 -55 0 0 -260 0
-260 380 0 380 0 0 260 0 260 -55 0 -55 0 0 160 0 160 269 0 269 0 48 57 c27
32 97 113 157 180 l107 123 0 340 0 341 -152 179 -153 179 -597 0 -598 1 0
-255z m1320 51 l141 -164 0 -329 0 -328 -141 -167 -142 -168 -279 0 -279 0 0
-200 0 -200 55 0 55 0 0 -222 0 -223 -350 3 -350 3 0 219 0 220 60 0 60 0 0
645 0 645 -60 0 -60 0 0 215 0 215 574 0 575 0 141 -164z"/>
<path d="M5830 2925 l0 -135 60 0 60 0 0 -730 0 -730 -60 0 -60 0 0 -135 0
-135 280 0 280 0 0 135 0 135 -57 0 -58 0 0 285 0 285 295 0 295 1 128 150
127 151 0 284 0 284 -126 145 -127 145 -518 0 -519 0 0 -135z m908 -202 l52
-66 0 -174 0 -174 -52 -65 -53 -64 -205 0 -205 0 0 305 0 305 205 -1 205 0 53
-66z"/>
<path d="M6350 2485 l0 -225 149 0 149 0 36 44 36 44 0 139 0 138 -41 43 -41
42 -144 0 -144 0 0 -225z m309 148 c31 -37 31 -39 31 -151 0 -108 -1 -115 -27
-148 l-28 -34 -127 0 -128 0 0 185 0 185 124 0 125 0 30 -37z"/>
<path d="M7437 3173 c-4 -3 -7 -505 -7 -1115 l0 -1108 40 0 40 0 0 1115 0
1115 -33 0 c-19 0 -37 -3 -40 -7z"/>
<path d="M7725 2998 c4 -13 43 -135 87 -273 44 -137 83 -261 87 -275 6 -20 15
-26 47 -28 l40 -3 47 148 c26 81 67 211 92 287 25 76 45 145 45 153 0 10 -10
13 -37 11 l-37 -3 -38 -125 c-21 -69 -55 -178 -75 -243 l-37 -118 -52 183
c-29 101 -61 210 -71 243 l-19 60 -43 3 c-41 3 -42 2 -36 -20z"/>
<path d="M8570 2923 c0 -94 0 -96 -19 -79 -11 10 -37 20 -58 22 -57 8 -102
-21 -135 -86 -24 -46 -28 -65 -28 -139 0 -62 6 -97 19 -126 44 -95 136 -133
198 -81 28 24 31 24 26 6 -5 -17 0 -20 31 -20 l36 0 0 300 0 300 -35 0 -35 0
0 -97z m-38 -152 c32 -28 33 -32 36 -119 4 -101 -11 -146 -53 -162 -66 -25
-110 35 -110 150 0 84 16 127 55 147 34 17 35 17 72 -16z"/>
<path d="M9430 2720 l0 -300 35 0 35 0 0 300 0 300 -35 0 -35 0 0 -300z"/>
<path d="M10330 2720 l0 -300 40 0 40 0 0 94 c0 139 13 141 82 13 l55 -102 43
-3 c52 -4 52 -5 -36 153 l-65 117 57 69 c31 38 61 72 65 75 21 13 5 24 -35 24
-42 0 -45 -2 -106 -80 -35 -44 -63 -80 -64 -80 -1 0 0 72 2 160 l3 160 -41 0
-40 0 0 -300z"/>
<path d="M9134 2856 c-38 -17 -70 -57 -79 -97 -8 -36 -9 -34 31 -42 28 -5 32
-3 43 28 15 42 62 62 107 45 34 -13 44 -26 44 -62 0 -30 -2 -31 -100 -49 -53
-10 -72 -19 -102 -49 -33 -33 -38 -44 -38 -84 0 -26 7 -60 15 -76 32 -62 118
-78 191 -35 41 24 42 24 47 5 4 -15 14 -20 40 -20 l35 0 -4 63 c-2 34 -6 117
-8 185 -5 138 -15 164 -71 188 -43 17 -110 17 -151 0z m137 -306 c-16 -56 -83
-86 -132 -60 -14 8 -19 21 -19 50 0 46 3 48 89 69 64 16 66 15 69 -4 2 -10 -1
-35 -7 -55z"/>
<path d="M9652 2850 c-33 -15 -47 -29 -62 -62 -27 -59 -25 -65 15 -70 32 -4
37 -1 53 31 21 43 60 56 107 37 27 -11 33 -21 37 -50 l4 -35 -56 -11 c-106
-22 -129 -31 -153 -60 -52 -61 -47 -140 10 -190 33 -29 41 -32 88 -28 32 3 64
13 83 26 30 22 31 22 37 2 5 -16 15 -20 47 -20 35 0 39 2 32 18 -5 9 -11 94
-14 188 -4 153 -7 174 -25 194 -48 53 -127 65 -203 30z m128 -330 c-42 -59
-140 -46 -140 19 0 38 20 52 94 71 l61 15 3 -38 c2 -26 -3 -46 -18 -67z"/>
<path d="M10056 2845 c-35 -24 -36 -24 -36 -4 0 17 -5 20 -32 17 l-33 -3 0
-215 0 -215 38 -3 37 -3 0 146 c0 165 11 210 54 221 40 10 76 -4 86 -32 6 -14
10 -95 10 -180 l0 -154 35 0 35 0 0 176 c0 199 -8 231 -65 258 -47 23 -87 20
-129 -9z"/>
<path d="M10740 2852 c-62 -31 -109 -132 -61 -132 11 0 26 -3 34 -6 11 -4 17
4 22 25 9 40 28 54 77 54 47 0 78 -28 78 -68 0 -26 -6 -29 -92 -44 -111 -20
-148 -56 -148 -143 0 -60 16 -90 60 -113 42 -22 91 -18 144 10 44 23 46 24 46
5 0 -17 7 -20 41 -20 38 0 41 2 34 23 -4 12 -10 94 -12 182 -4 106 -10 169
-19 186 -28 55 -134 76 -204 41z m146 -276 c-12 -80 -98 -124 -146 -76 -45 45
-18 85 75 109 39 10 72 17 74 15 2 -2 0 -23 -3 -48z"/>
<path d="M11132 2848 c-19 -19 -22 -20 -22 -5 0 13 -9 17 -35 17 l-35 0 0
-220 0 -220 34 0 34 0 4 148 c4 181 13 208 73 206 44 -2 55 8 55 47 0 18 -8
29 -25 37 -38 17 -58 15 -83 -10z"/>
<path d="M8200 2640 l0 -220 35 0 35 0 0 220 0 220 -35 0 -35 0 0 -220z"/>
<path d="M8690 2853 c0 -5 29 -102 65 -217 61 -192 65 -211 54 -245 -17 -54
-28 -64 -66 -58 l-34 6 7 -37 c9 -50 11 -52 45 -52 67 0 87 30 144 215 20 66
54 176 76 244 21 68 39 130 39 137 0 9 -12 14 -34 14 l-35 0 -25 -82 c-60
-199 -74 -242 -75 -217 -1 14 -10 52 -21 83 -11 32 -29 93 -41 137 l-21 79
-39 0 c-21 0 -39 -3 -39 -7z"/>
<path d="M7770 1576 l0 -306 40 0 40 0 0 119 0 118 94 5 c114 6 151 24 184 88
30 58 28 164 -4 207 -46 62 -63 67 -214 71 l-140 4 0 -306z m279 188 c31 -39
29 -107 -4 -139 -22 -23 -32 -25 -110 -25 l-85 0 0 95 0 95 89 0 c85 0 91 -1
110 -26z"/>
<path d="M8580 1574 l0 -305 38 3 37 3 3 303 2 302 -40 0 -40 0 0 -306z"/>
<path d="M9970 1575 l0 -305 35 0 35 0 0 145 c0 164 11 208 56 225 31 12 63 4
81 -19 9 -11 12 -68 13 -184 l0 -168 38 3 37 3 0 175 c-1 189 -6 216 -56 252
-36 27 -103 26 -140 -1 l-29 -22 0 101 0 100 -35 0 -35 0 0 -305z"/>
<path d="M9108 1837 c-24 -20 -28 -30 -28 -75 0 -45 -3 -52 -20 -52 -16 0 -20
-7 -20 -35 0 -28 4 -35 20 -35 19 0 20 -7 20 -144 0 -198 12 -226 99 -226 41
0 41 0 41 39 0 36 -3 40 -27 43 l-28 3 -3 142 -3 142 28 3 c23 2 29 8 31 36 3
30 1 32 -27 32 l-31 0 0 75 c0 83 -6 89 -52 52z"/>
<path d="M8325 1720 c-88 -19 -135 -97 -135 -225 0 -63 5 -91 24 -131 34 -74
79 -98 173 -95 49 2 109 60 128 124 55 186 -45 358 -190 327z m73 -86 c36 -25
52 -67 52 -141 0 -81 -22 -133 -62 -147 -62 -22 -114 28 -124 121 -15 124 60
219 134 167z"/>
<path d="M9395 1724 c-5 -1 -22 -5 -36 -8 -36 -8 -85 -61 -105 -112 -12 -31
-15 -66 -13 -131 4 -77 8 -95 31 -131 35 -52 77 -74 140 -74 62 1 112 31 138
83 25 48 25 69 1 69 -11 0 -26 3 -35 6 -10 4 -19 -5 -30 -29 -16 -39 -41 -57
-79 -57 -33 0 -73 33 -81 67 -4 16 -9 36 -12 46 -5 16 6 17 125 17 l131 0 0
53 c0 64 -36 145 -75 171 -29 19 -81 35 -100 30z m60 -96 c14 -13 29 -38 34
-55 l10 -33 -91 0 -90 0 6 33 c7 38 48 77 81 77 13 0 35 -10 50 -22z"/>
<path d="M9740 1717 c-97 -25 -147 -148 -120 -295 10 -53 20 -74 49 -105 54
-57 130 -66 197 -23 28 19 63 87 64 124 0 18 -5 22 -34 22 -27 0 -35 -5 -40
-23 -22 -91 -117 -104 -152 -22 -16 39 -19 151 -4 189 25 67 92 87 129 40 12
-15 21 -35 21 -45 0 -15 5 -17 33 -12 47 9 51 16 29 66 -31 70 -99 103 -172
84z"/>
<path d="M10482 1719 c-18 -3 -42 -15 -52 -24 -18 -16 -20 -17 -20 -2 0 13 -9
17 -35 17 l-35 0 0 -221 0 -220 38 3 37 3 5 160 c3 88 9 167 13 177 13 26 59
41 90 29 15 -6 28 -12 29 -13 1 -2 4 -82 7 -178 l6 -175 38 -3 39 -3 -4 183
c-4 226 -10 242 -98 267 -14 4 -40 4 -58 0z"/>
<path d="M10983 1719 c-46 -9 -77 -32 -104 -76 -21 -34 -24 -50 -24 -149 0
-104 2 -113 27 -152 16 -23 42 -49 59 -58 40 -20 113 -20 145 0 33 22 72 84
76 121 3 28 0 30 -33 33 -33 3 -37 1 -42 -27 -8 -41 -41 -71 -76 -71 -63 0
-102 95 -85 206 16 107 123 143 153 51 10 -30 14 -33 46 -29 39 5 42 15 21 65
-28 66 -94 101 -163 86z"/>
<path d="M8700 1712 c0 -4 36 -122 100 -329 30 -96 31 -106 18 -145 -12 -41
-15 -43 -56 -46 -34 -3 -42 -7 -38 -18 3 -9 6 -26 6 -40 0 -30 38 -41 81 -24
47 20 52 31 185 467 19 61 34 116 34 122 0 6 -15 11 -34 11 -39 0 -31 15 -86
-170 -17 -58 -34 -112 -36 -120 -3 -8 -18 28 -34 80 -67 231 -56 208 -100 212
-22 2 -40 2 -40 0z"/>
<path d="M10712 1493 l3 -218 38 -3 37 -3 0 220 0 221 -40 0 -40 0 2 -217z"/>
</g>
</svg>
